<?xml version="1.0" encoding="UTF-8"?>
<svg id="Layer_1" data-name="Layer 1" xmlns="http://www.w3.org/2000/svg" viewBox="0 0 666.46 649.77">
  <defs>
    <style>
      .cls-1 {
        fill: #f8bb47;
      }

      .cls-2 {
        fill: #013366;
      }
    </style>
  </defs>
  <path class="cls-1" d="M545.55,194.51c-29.4,21.7-30.1,65.8-2.1,88.9-28.7,14-49,43.4-49,77,0,116.9-9.8,106.4,38.5,106.4-28,40.6-67.9,72.1-114.8,89.6h-.01v-13.3c0-32.9-18.89-63-49-77,12.61-10.5,20.31-25.9,20.31-43.4,0-31.5-25.2-56.7-56.7-56.7-53.2,0-77,66.5-36.4,100.8-28.7,13.3-49,42.7-49,77v16.8c-50.4-16.8-94.5-49.69-125.3-93.8h35c7,0,13.3-6.3,13.3-13.3v-93.1c0-35-21-63.7-49-77,29.39-24.5,27.3-73.5-9.11-93.1,36.4-60.2,97.3-102.2,165.9-116.2,3.5,10.5,9.8,19.6,18.2,26.6-28.7,13.3-49,42.7-49,77v93.1c0,7,6.3,13.3,13.3,13.3h143.5c7,0,13.3-6.3,13.3-13.3v-93.8c.01-34.3-20.29-63-48.99-77,8.4-7,14-16.1,17.5-24.5,66.5,16.1,125.3,59.5,159.6,119Z"/>
  <path class="cls-2" d="M616.96,283.4c60.19,28.71,48.3,85.41,48.3,169.41,0,7-6.31,13.3-13.31,13.3h-86.1c-34.3,56-86.1,97.3-147.7,118.3v51.8c0,7-6.3,13.31-13.3,13.31h-143.5c-7,0-13.3-6.31-13.3-13.31v-48.3c-65.1-19.6-121.8-62.99-157.5-121.1H13.55c-7,0-13.3-6.3-13.3-13.3v-93.1c0-33.6,19.6-63,49-77-41.3-34.3-16.1-100.8,37.1-100.1,40.6-70.7,111.3-121.1,191.1-135.8,10.5-64.4,103.6-62.3,112,2.1,76.3,16.8,142.8,66.5,181.3,134.4,57.4-10.5,90.29,62.99,46.21,99.39h-.01s.01,0,.01,0ZM638.64,439.51c0-83.3,4.9-99.4-17.5-120.4-36.4-36.4-99.4-10.5-99.4,41.3v79.1h116.9ZM580.55,269.41c16.8,0,30.1-13.3,30.1-30.1s-13.3-30.1-30.1-30.09c-40.6,0-39.2,60.19,0,60.19ZM543.45,283.41c-28-23.1-27.3-67.2,2.1-88.9-34.3-59.5-93.1-102.9-159.6-119-3.5,8.4-9.1,17.5-17.5,24.5,28.7,14,49,42.7,49,77v93.8c-.01,7-6.31,13.3-13.31,13.3h-143.5c-7,0-13.3-6.3-13.3-13.3v-93.1c0-34.3,20.3-63.7,49-77-8.4-7-14.7-16.1-18.2-26.6-68.6,14-129.5,56-165.9,116.2,36.41,19.6,38.5,68.6,9.11,93.1,28,13.3,49,42,49,77v93.1c0,7-6.3,13.3-13.3,13.3h-35c30.8,44.11,74.9,77,125.3,93.8v-16.8c0-34.3,20.3-63.7,49-77-40.6-34.3-16.8-100.8,36.4-100.8,31.5,0,56.7,25.2,56.7,56.7,0,17.5-7.7,32.9-20.31,43.4,30.11,14,49,44.1,49,77v13.3h.01c46.9-17.5,86.8-49,114.8-89.6-48.3,0-38.5,10.5-38.5-106.4,0-33.6,20.3-63,49-77ZM391.55,622.91c0-87.5,3.5-100.1-17.5-121.1-36.4-36.4-99.4-10.5-99.4,41.3v79.8h116.9ZM391.55,256.81v-79.8c0-32.2-26.6-58.8-58.8-58.1-32.2,0-58.1,25.9-58.1,58.1v79.8h116.9ZM362.85,58.71c.7-19.6-14-32.9-30.1-32.9s-30.1,14-30.1,30.1c0,39.2,57.4,40.6,60.2,2.8ZM362.85,422.71c0-16.8-13.3-30.1-30.1-30.1s-30.11,13.3-30.11,30.1,13.31,30.1,30.11,30.1,30.09-13.3,30.1-30.1ZM143.75,440.21v-79.8c0-39.9-38.5-67.2-75.6-56-24.5,7.7-41.3,30.1-41.3,56v79.8h116.9ZM85.65,269.41c39.2,0,40.6-60.2,0-60.2s-40.6,60.2,0,60.2Z"/>
  <polygon class="cls-2" points="616.96 283.4 616.95 283.41 616.95 283.4 616.96 283.4"/>
</svg>