<?xml version="1.0" encoding="UTF-8"?>
<svg id="Layer_1" data-name="Layer 1" xmlns="http://www.w3.org/2000/svg" viewBox="0 0 1006.52 819.4">
  <defs>
    <style>
      .cls-1 {
        fill: #013366;
      }

      .cls-1, .cls-2 {
        fill-rule: evenodd;
      }

      .cls-2 {
        fill: #f8bb47;
      }
    </style>
  </defs>
  <path class="cls-1" d="M502.64.02c-3.4.09-6.75.91-9.79,2.42L16.07,238.64c-5.34,1.68-9.86,5.21-12.68,9.92-2.84,4.47-3.95,9.75-3.13,14.94v76.56c-.67,4.22-.06,8.55,1.75,12.45,1.82,3.9,4.77,7.21,8.47,9.52h0c3.89,2.49,8.47,3.76,13.13,3.66,4.66-.1,9.17-1.58,12.93-4.23l55.38-27.43v462.93c0,5.87,2.41,11.5,6.7,15.66,4.3,4.15,10.1,6.49,16.17,6.49h282.98c7.26,1.16,14.66-1.14,19.88-6.18.17-.15.32-.31.48-.45h0c5.08-5.05,7.38-12.11,6.22-19.07v-258.34h157.76v258.28h0c-1.2,7.03,1.16,14.18,6.35,19.22.17.16.32.34.48.5h.03c5.2,4.91,12.5,7.15,19.67,6.01h283.15c6.07,0,11.87-2.33,16.16-6.49,4.28-4.16,6.7-9.78,6.7-15.66v-462.86l55.35,27.42h0c3.57,2.5,7.82,3.94,12.22,4.16,4.4.21,8.77-.81,12.59-2.94,4.07-2.21,7.35-5.58,9.38-9.64,2.04-4.07,2.74-8.64,2.03-13.11v-76.29c.88-5.36-.3-10.85-3.34-15.44-2.81-4.5-7.19-7.87-12.34-9.52l-75.89-37.6v-125.39c0-5.87-2.41-11.5-6.7-15.64-4.3-4.16-10.1-6.49-16.16-6.49h-118.55c-6.07,0-11.87,2.33-16.16,6.49-4.3,4.16-6.7,9.78-6.7,15.66v44.01L513.66,2.43c-3.4-1.68-7.2-2.52-11.03-2.42h0ZM503.26,47.01l457.28,226.54v33.51l-446.86-221.4c-6.53-3.24-14.28-3.24-20.83,0L45.99,307.04v-33.51L503.27,47.01h-.02ZM796.13,97.85h72.82v80.6l-72.82-36.07v-44.53h0ZM503.26,130.25l365.7,181.18v463.4h-241.1v-261.88h0c0-5.89-2.41-11.51-6.7-15.66-4.3-4.14-10.1-6.49-16.16-6.49h-203.49c-6.07,0-11.87,2.33-16.17,6.49-4.28,4.14-6.7,9.78-6.7,15.64v261.88h-240.98v-463.46l365.59-181.12h0Z"/>
  <path class="cls-2" d="M503.25,47.01l457.28,226.54v33.51l-446.86-221.4c-6.53-3.24-14.28-3.24-20.83,0L45.98,307.04v-33.51L503.26,47.01h-.02.01ZM796.12,97.85h72.82v80.6l-72.82-36.07v-44.53Z"/>
</svg>