<svg width="1600" height="1600" viewBox="0 0 1600 1600" fill="none" xmlns="http://www.w3.org/2000/svg">
<g clip-path="url(#clip0_14_16)">
<path d="M675 1250H925C938.823 1250 950 1238.82 950 1225V475C950 461.177 938.823 450 925 450H675C661.177 450 650 461.177 650 475V1225C650 1238.82 661.177 1250 675 1250ZM900 1200H825V500H900V1200ZM700 500H775V1200H700V500Z" fill="#F8BB47"/>
<path d="M1275 900H1375C1388.82 900 1400 888.823 1400 875V775C1400 761.177 1388.82 750 1375 750H1275C1261.18 750 1250 761.177 1250 775V875C1250 888.823 1261.18 900 1275 900ZM1300 800H1350V850H1300V800Z" fill="#F8BB47"/>
<path d="M1275 1150H1375C1388.82 1150 1400 1138.82 1400 1125V1025C1400 1011.18 1388.82 1000 1375 1000H1275C1261.18 1000 1250 1011.18 1250 1025V1125C1250 1138.82 1261.18 1150 1275 1150ZM1300 1050H1350V1100H1300V1050Z" fill="#F8BB47"/>
<path d="M1275 1400H1375C1388.82 1400 1400 1388.82 1400 1375V1275C1400 1261.18 1388.82 1250 1375 1250H1275C1261.18 1250 1250 1261.18 1250 1275V1375C1250 1388.82 1261.18 1400 1275 1400ZM1300 1300H1350V1350H1300V1300Z" fill="#F8BB47"/>
<path d="M325 750H225C211.177 750 200 761.177 200 775V875C200 888.823 211.177 900 225 900H325C338.823 900 350 888.823 350 875V775C350 761.177 338.823 750 325 750ZM300 850H250V800H300V850Z" fill="#F8BB47"/>
<path d="M325 1000H225C211.177 1000 200 1011.18 200 1025V1125C200 1138.82 211.177 1150 225 1150H325C338.823 1150 350 1138.82 350 1125V1025C350 1011.18 338.823 1000 325 1000ZM300 1100H250V1050H300V1100Z" fill="#F8BB47"/>
<path d="M325 1250H225C211.177 1250 200 1261.18 200 1275V1375C200 1388.82 211.177 1400 225 1400H325C338.823 1400 350 1388.82 350 1375V1275C350 1261.18 338.823 1250 325 1250ZM300 1350H250V1300H300V1350Z" fill="#F8BB47"/>
<path d="M1574.93 1550H1499.93V700H1524.93C1538.76 700 1549.93 688.823 1549.93 675V575C1549.93 561.177 1538.76 550 1524.93 550H1099.93V325C1099.93 311.177 1088.76 300 1074.93 300H1049.93V175C1049.93 161.177 1038.76 150 1024.93 150H924.934V25C924.934 11.1773 913.757 0 899.934 0H699.934C686.111 0 674.934 11.1771 674.934 25V150H574.934C561.111 150 549.934 161.177 549.934 175V300H524.934C511.111 300 499.934 311.177 499.934 325V550H74.9336C61.1109 550 49.9336 561.177 49.9336 575V675C49.9336 688.823 61.1107 700 74.9336 700H99.9336V1550H24.9336C11.1109 1550 -0.0664062 1561.18 -0.0664062 1575C-0.0664062 1588.82 11.1107 1600 24.9336 1600H1574.93C1588.76 1600 1599.93 1588.82 1599.93 1575C1599.93 1561.18 1588.76 1550 1574.93 1550ZM1499.93 600V650H1174.93C1161.11 650 1149.93 661.177 1149.93 675C1149.93 688.823 1161.11 700 1174.93 700H1449.93V1550H1099.93V600H1499.93ZM724.934 50H874.934V150H724.934V50ZM599.934 200H999.934V300H599.934V200ZM549.934 350H1049.93V1550H949.934V1375C949.934 1361.18 938.757 1350 924.934 1350H674.934C661.111 1350 649.934 1361.18 649.934 1375V1550H549.934V350ZM899.934 1550H699.934V1400H899.934V1550ZM149.934 700H424.934C438.756 700 449.934 688.823 449.934 675C449.934 661.177 438.757 650 424.934 650H99.9336V600H499.934V1550H149.934V700Z" fill="#013366"/>
</g>
<defs>
<clipPath id="clip0_14_16">
<rect width="1600" height="1600" fill="white"/>
</clipPath>
</defs>
</svg>
